<svg width="70" height="62" viewBox="0 0 70 62" fill="none" xmlns="http://www.w3.org/2000/svg">
<path d="M9.22852 31.2389C8.66188 31.2389 8.20312 31.6465 8.20312 32.1489V35.7888C8.20312 36.2917 8.66188 36.6988 9.22852 36.6988C9.79515 36.6988 10.2539 36.2917 10.2539 35.7888V32.1489C10.2539 31.6465 9.79515 31.2389 9.22852 31.2389Z" fill="black"/>
<path d="M40.332 17.5892C40.332 17.0868 39.8733 16.6792 39.3066 16.6792C38.74 16.6792 38.2812 17.0868 38.2812 17.5892C38.2812 21.8448 34.6048 25.351 29.9227 25.7416C29.4613 24.3619 28.0204 23.3524 26.3184 23.3524H19.4824C17.4092 23.3524 15.7227 24.8496 15.7227 26.689V27.599H15.023C13.651 26.6146 11.996 26.0046 10.2539 25.8316V24.869C10.2539 24.3666 9.79515 23.959 9.22852 23.959C8.66188 23.959 8.20312 24.3666 8.20312 24.869V25.8311C3.59528 26.2852 0 29.7606 0 33.9688C0 38.4851 4.14001 42.1587 9.22852 42.1587C10.7938 42.1587 12.3196 41.8046 13.6719 41.1435V43.0686C13.6719 43.5715 14.1306 43.9786 14.6973 43.9786H17.7734V56.0022L14.3731 57.0079C13.8358 57.1667 13.5453 57.6824 13.7247 58.1591C13.8679 58.5402 14.2679 58.7814 14.6973 58.7814C14.8046 58.7814 14.9141 58.7663 15.0214 58.7345L19.123 57.5212C19.5422 57.397 19.8242 57.0496 19.8242 56.6577V43.9786H25.9766V56.6577C25.9766 57.0496 26.2591 57.3975 26.6778 57.5212L30.7793 58.7345C30.8867 58.7663 30.9962 58.7814 31.104 58.7814C31.5329 58.7814 31.9329 58.5402 32.0766 58.1591C32.2555 57.6819 31.965 57.1667 31.4277 57.0079L28.0273 56.0022V43.9786H31.1035C31.6702 43.9786 32.1289 43.5715 32.1289 43.0686V38.7818C32.1289 38.0704 32.0264 37.3737 31.8261 36.6988H39.3066C39.8733 36.6988 40.332 36.2916 40.332 35.7888V32.1489C40.332 31.6465 39.8733 31.2389 39.3066 31.2389H30.0781V27.5558C35.8187 27.0942 40.332 22.8017 40.332 17.5892ZM17.7734 26.689C17.7734 25.8529 18.5398 25.1723 19.4824 25.1723H26.3184C27.261 25.1723 28.0273 25.8529 28.0273 26.689V31.2389H21.7719C21.3628 29.4587 19.7794 28.0535 17.7734 27.6909V26.689ZM14.6481 38.5187C14.3982 38.5187 14.1573 38.5998 13.9699 38.7467C12.6582 39.7733 10.9743 40.3387 9.22852 40.3387C5.27061 40.3387 2.05078 37.4813 2.05078 33.9688C2.05078 30.7659 4.72961 28.108 8.20312 27.6653V28.5089C8.20312 29.0118 8.66188 29.4189 9.22852 29.4189C9.79515 29.4189 10.2539 29.0118 10.2539 28.5089V27.6653C11.6254 27.8416 12.9178 28.3677 13.9699 29.1914C14.1573 29.3384 14.3982 29.4189 14.6481 29.4189H16.748C18.0848 29.4189 19.2245 30.1801 19.648 31.2389H15.3809C13.6847 31.2389 12.3047 32.4636 12.3047 33.9688C12.3047 35.4741 13.6847 36.6988 15.3809 36.6988H19.648C19.2245 37.758 18.0848 38.5187 16.748 38.5187H14.6481ZM16.4062 33.9688C16.4062 34.4707 15.9464 34.8788 15.3809 34.8788C14.8153 34.8788 14.3555 34.4707 14.3555 33.9688C14.3555 33.4674 14.8153 33.0588 15.3809 33.0588C15.9464 33.0588 16.4062 33.4674 16.4062 33.9688ZM30.0781 42.1587H15.7227V40.3387H16.748C19.2239 40.3387 21.2955 38.7732 21.7719 36.6988H29.6829C29.9441 37.3656 30.0781 38.0637 30.0781 38.7818V42.1587ZM34.1797 33.0588H38.2812V34.8788H34.1797V33.0588ZM32.1289 33.0588V34.8788H18.2808C18.3945 34.594 18.457 34.2878 18.457 33.9688C18.457 33.6499 18.3945 33.3437 18.2808 33.0588H29.0501H32.1289Z" fill="black"/>
<path d="M15.7227 21.5324C16.8896 21.5324 17.979 21.0893 18.7433 20.3504C19.9177 21.0936 21.3522 21.5324 22.9004 21.5324C24.4492 21.5324 25.8836 21.0936 27.0575 20.3504C27.8223 21.0893 28.9117 21.5324 30.0781 21.5324C32.3399 21.5324 34.1797 19.8997 34.1797 17.8925C34.1797 15.8858 32.3399 14.2526 30.0781 14.2526H30.0039C29.5045 11.17 26.5101 8.79272 22.9004 8.79272C19.2907 8.79272 16.2962 11.17 15.7974 14.2526H15.7227C13.4615 14.2526 11.6211 15.8858 11.6211 17.8925C11.6211 19.8997 13.4615 21.5324 15.7227 21.5324ZM30.0039 16.0726H30.0781C31.2093 16.0726 32.1289 16.8892 32.1289 17.8925C32.1289 18.8963 31.2093 19.7125 30.0781 19.7125C29.481 19.7125 28.9246 19.4807 28.5411 19.0954C29.3021 18.2371 29.8207 17.2025 30.0039 16.0726ZM27.8938 14.1341C25.9963 13.7431 24.4999 12.4156 24.0598 10.7316C25.9573 11.1227 27.4532 12.4502 27.8938 14.1341ZM21.7415 10.7316C21.3009 12.4156 19.805 13.7431 17.9075 14.1341C18.3475 12.4502 19.844 11.1227 21.7415 10.7316ZM22.9004 12.981C23.9749 14.563 25.803 15.6986 27.9398 15.9953C27.4976 18.1077 25.4073 19.7125 22.9004 19.7125C20.3941 19.7125 18.3032 18.1077 17.861 15.9953C19.9978 15.6986 21.8259 14.5635 22.9004 12.981ZM15.7227 16.0726H15.7974C15.9801 17.2029 16.4992 18.2371 17.2602 19.0954C16.8768 19.4807 16.3197 19.7125 15.7227 19.7125C14.5921 19.7125 13.6719 18.8963 13.6719 17.8925C13.6719 16.8892 14.5921 16.0726 15.7227 16.0726Z" fill="black"/>
<path d="M50.5176 21.5362C54.4755 21.5362 57.6953 18.6787 57.6953 15.1663V9.70641C57.6953 8.82439 57.2264 8.02437 56.4648 7.52009C56.6016 6.68594 56.2955 5.82572 55.5933 5.20248C54.8904 4.57877 53.9211 4.30767 52.9812 4.42852C52.4129 3.75315 51.5115 3.33655 50.5176 3.33655C49.5237 3.33655 48.6222 3.75315 48.054 4.42852C47.114 4.30719 46.1447 4.57877 45.4424 5.20248C44.7396 5.82572 44.4336 6.68594 44.5703 7.52009C43.8093 8.02437 43.3398 8.82439 43.3398 9.70641V15.1663C43.3398 18.6787 46.5597 21.5362 50.5176 21.5362ZM45.3906 9.70641C45.3906 9.30782 45.6785 8.95899 46.1063 8.83861C46.3952 8.75757 46.6286 8.56751 46.7445 8.31916C46.8604 8.07129 46.8465 7.79024 46.7071 7.55184C46.4999 7.19828 46.5746 6.77125 46.8924 6.48925C47.2096 6.20725 47.6908 6.1409 48.0898 6.32479C48.3584 6.44897 48.6751 6.46129 48.9549 6.35797C49.2342 6.25512 49.4489 6.048 49.5403 5.7916C49.6754 5.41197 50.0684 5.15651 50.5176 5.15651C50.9667 5.15651 51.3598 5.41197 51.4949 5.7916C51.5862 6.048 51.8004 6.25512 52.0802 6.35797C52.3601 6.46129 52.6768 6.44897 52.9454 6.32479C53.3438 6.1409 53.825 6.20725 54.1428 6.48925C54.4605 6.77125 54.5348 7.19828 54.3275 7.55184C54.1882 7.79024 54.1748 8.07129 54.2907 8.31964C54.4066 8.56751 54.64 8.75757 54.9284 8.83861C55.3567 8.95899 55.644 9.30782 55.644 9.70641V10.7145C54.3404 9.532 52.524 8.79643 50.517 8.79643C48.5106 8.79643 46.6943 9.532 45.3901 10.7145V9.70641H45.3906ZM50.5176 10.6164C53.3449 10.6164 55.6445 12.6572 55.6445 15.1663C55.6445 17.6754 53.3449 19.7162 50.5176 19.7162C47.6903 19.7162 45.3906 17.6754 45.3906 15.1663C45.3906 12.6572 47.6903 10.6164 50.5176 10.6164Z" fill="black"/>
<path d="M69.5743 8.36137C69.3067 8.19074 68.9628 8.14382 68.6504 8.23672L62.498 10.0567C62.0793 10.1804 61.7968 10.5283 61.7968 10.9197V14.5758V19.3636L60.4473 19.7631C59.91 19.9219 59.6195 20.4371 59.7989 20.9139C59.942 21.2954 60.342 21.5367 60.7714 21.5367C60.8788 21.5367 60.9883 21.5215 61.0956 21.4893L63.1464 20.8826C63.5651 20.7589 63.8476 20.411 63.8476 20.0195V15.2156L67.9492 14.0023V17.5436L66.5996 17.9432C66.0623 18.102 65.7718 18.6171 65.9512 19.0939C66.1302 19.5707 66.7107 19.8281 67.2479 19.6693L69.2987 19.0626C69.7174 18.9389 69.9999 18.5911 69.9999 18.1996C69.9999 18.1996 69.9999 12.7236 69.9999 12.7207V9.09978C69.9999 8.80735 69.8413 8.53246 69.5743 8.36137ZM67.9492 12.0838L63.8476 13.2971V11.5757L67.9492 10.3624V12.0838Z" fill="black"/>
<path d="M60.7715 23.3562C60.2049 23.3562 59.7462 23.7633 59.7462 24.2662V28.5128C59.7462 29.699 58.889 30.7105 57.6954 31.0863V26.6928C57.6954 24.8529 56.0088 23.3562 53.9356 23.3562H47.0997C45.0265 23.3562 43.3399 24.8529 43.3399 26.6928V35.7926C43.3399 37.5239 44.1234 39.0951 45.3907 40.2444V56.0055L41.9903 57.0117C41.4531 57.1705 41.1626 57.6857 41.342 58.1625C41.4851 58.544 41.8851 58.7852 42.3145 58.7852C42.4219 58.7852 42.5313 58.7701 42.6387 58.7379L46.7403 57.5245C47.159 57.4008 47.4415 57.053 47.4415 56.6615V41.5468C48.3745 41.9411 49.4175 42.1625 50.5176 42.1625C51.6178 42.1625 52.6608 41.9411 53.5938 41.5468V56.6615C53.5938 57.0534 53.8763 57.4008 54.295 57.5245L58.3966 58.7379C58.5039 58.7701 58.6134 58.7852 58.7208 58.7852C59.1501 58.7852 59.5502 58.544 59.6933 58.1625C59.8727 57.6857 59.5822 57.1705 59.0449 57.0117L55.6446 56.0055V40.2444C56.9119 39.0951 57.6954 37.5239 57.6954 35.7926V32.9712C60.0329 32.5484 61.7969 30.71 61.7969 28.5128V24.2662C61.7969 23.7633 61.3382 23.3562 60.7715 23.3562ZM50.5176 40.3425C48.0417 40.3425 45.9701 38.7771 45.4938 36.7026H55.5415C55.0651 38.7771 52.9935 40.3425 50.5176 40.3425ZM55.6446 34.8826H45.3907V26.6928C45.3907 25.8563 46.1571 25.1762 47.0997 25.1762H53.9356C54.8782 25.1762 55.6446 25.8563 55.6446 26.6928V34.8826Z" fill="black"/>
</svg>
