<svg width="41" height="42" viewBox="0 0 41 42" fill="none" xmlns="http://www.w3.org/2000/svg">
<g clip-path="url(#clip0)">
<path d="M38.8652 29.1579V27.6052C38.8652 27.5121 38.8586 27.4193 38.8492 27.3275C38.9984 27.2357 39.137 27.1342 39.2628 27.0225C39.8199 26.5281 40.1139 25.8754 40.1133 25.135C40.113 24.5015 39.8859 23.8976 39.4933 23.4311C39.8014 23.0555 39.9766 22.5771 39.9675 22.0788C39.9516 21.1936 39.3832 20.4391 38.6068 20.1611C38.7679 19.8163 38.858 19.4304 38.858 19.0233V18.5709C40.0085 18.4887 40.92 17.5024 40.92 16.3013C40.92 16.1276 40.8843 12.002 37.7835 8.08469C36.2076 6.09379 34.1215 4.51705 31.5824 3.39815C28.5113 2.04488 24.7558 1.35781 20.4196 1.3562C14.9584 1.35813 10.4487 2.44203 7.01561 4.57709C6.73127 4.754 6.64055 5.13349 6.8126 5.42501C6.98495 5.71654 7.35469 5.80997 7.63872 5.63306C10.8816 3.61647 15.1817 2.59293 20.4196 2.591C24.5915 2.59261 28.1872 3.24565 31.1079 4.53278C33.4662 5.57206 35.398 7.02904 36.8498 8.86326C39.6844 12.4441 39.7169 16.1456 39.7169 16.3013C39.7169 16.8754 39.2621 17.3422 38.7028 17.3422H2.13709C1.57779 17.3422 1.12297 16.8754 1.12297 16.3013C1.12297 16.1462 1.14268 14.7294 1.83054 12.7821C2.58284 10.6516 3.80685 8.79873 5.46785 7.27529C5.71559 7.04798 5.73717 6.65757 5.5157 6.40361C5.29424 6.14933 4.91418 6.1275 4.66644 6.35449C-0.0259627 10.6586 -0.0800781 16.073 -0.0800781 16.3013C-0.0800781 17.5024 0.831438 18.4887 1.98162 18.5709V19.0233C1.98162 19.4339 2.07359 19.823 2.23719 20.1701C1.94284 20.278 1.67163 20.4533 1.44954 20.6854C1.06729 21.0851 0.862406 21.6081 0.872415 22.1575C0.880861 22.6336 1.04696 23.0789 1.33036 23.4321C0.938105 23.8986 0.711321 24.5025 0.711008 25.135C0.710382 25.8754 1.00442 26.5281 1.56153 27.0225C1.69509 27.141 1.84336 27.2479 2.0029 27.3439C1.99445 27.4306 1.98882 27.5176 1.98882 27.6052V29.1566C0.835192 29.2356 -0.0800781 30.2232 -0.0800781 31.4268C-0.0800781 36.5211 3.95793 40.6654 8.92091 40.6654H31.919C36.882 40.6654 40.92 36.5211 40.92 31.4268C40.92 30.2283 40.0122 29.2436 38.8652 29.1579ZM38.4761 26.0885C37.923 26.5794 36.9092 26.7836 35.8297 26.6215C35.0655 26.5066 34.6633 26.2882 34.2375 26.0568C34.1396 26.0038 34.0408 25.9498 33.9375 25.8975L35.3039 24.4701C35.4744 24.2919 35.7118 24.1898 35.9555 24.1898H37.9124C38.0994 24.1898 38.2834 24.1638 38.4623 24.1121C38.7432 24.3683 38.9102 24.7414 38.9105 25.136C38.9105 25.5119 38.7645 25.8327 38.4761 26.0885ZM3.18468 18.5773H37.6552V19.0233C37.6552 19.5026 37.4203 19.9264 37.0628 20.1807C37.0528 20.1881 37.0425 20.1948 37.0321 20.2016C37.0065 20.2189 36.9802 20.2353 36.9536 20.2507C36.9442 20.2561 36.9352 20.2616 36.9261 20.2667C36.892 20.2854 36.8573 20.3027 36.8216 20.3184C36.8194 20.3194 36.8176 20.3203 36.8157 20.3213C36.776 20.3383 36.7353 20.3537 36.6937 20.3669C36.689 20.3685 36.6843 20.3698 36.6796 20.3711C36.6449 20.382 36.6095 20.3913 36.5736 20.399C36.5623 20.4016 36.5514 20.4038 36.5401 20.4061C36.5091 20.4118 36.4778 20.417 36.4463 20.4208C36.4344 20.4221 36.4228 20.4237 36.4109 20.425C36.3687 20.4292 36.3261 20.4318 36.283 20.4318H4.55664C3.80028 20.4318 3.18468 19.7999 3.18468 19.0236V18.5773ZM2.30819 21.5503C2.47179 21.3795 2.69732 21.2813 2.92755 21.2813H3.21971C3.60978 21.5253 4.06741 21.6662 4.55695 21.6662H36.283C36.3365 21.6662 36.3893 21.664 36.4419 21.6608C36.4588 21.6598 36.4753 21.6582 36.4919 21.6569C36.5288 21.6537 36.5657 21.6499 36.6023 21.645C36.6202 21.6428 36.6383 21.6409 36.6561 21.6383C36.7031 21.6312 36.7497 21.6232 36.7957 21.6136C36.8151 21.6094 36.8341 21.6046 36.8535 21.6001C36.8851 21.5927 36.9167 21.585 36.948 21.5763C36.9718 21.5699 36.9955 21.5629 37.019 21.5558C37.0443 21.5481 37.0694 21.5394 37.0944 21.5311C37.1185 21.523 37.1422 21.515 37.166 21.5063C37.207 21.4906 37.2477 21.4742 37.2877 21.4569C37.3118 21.4463 37.3356 21.4348 37.3593 21.4235C37.3819 21.4129 37.4041 21.402 37.426 21.3908C37.4494 21.3786 37.4729 21.3667 37.496 21.3538C37.5223 21.3394 37.5483 21.324 37.5742 21.3086C37.5899 21.2993 37.6058 21.2909 37.6215 21.2813H37.9496C38.391 21.2813 38.7566 21.6495 38.7648 22.1019C38.7707 22.4172 38.583 22.7168 38.2871 22.8644H38.2868C38.1664 22.9245 38.0403 22.9553 37.9124 22.9553H35.9551C35.3912 22.9553 34.8409 23.1919 34.4455 23.6051L32.0072 26.1524C31.426 26.7599 30.5045 26.8421 29.8317 26.3749C29.817 26.3647 29.8026 26.3544 29.7882 26.3438C29.7506 26.3162 29.7134 26.2873 29.6774 26.2558C29.6774 26.2555 29.6771 26.2552 29.6768 26.2552L26.5187 23.4777C26.1355 23.1409 25.6466 22.9553 25.1421 22.9553H2.89033C2.76645 22.9553 2.64634 22.9261 2.53279 22.8689H2.53248C2.25596 22.7296 2.08078 22.448 2.07515 22.1343C2.07109 21.9192 2.15398 21.7118 2.30819 21.5503ZM1.91406 25.1356C1.91406 24.7436 2.07953 24.3725 2.35793 24.1163C2.5306 24.1651 2.70859 24.1898 2.89033 24.1898H25.1421C25.3601 24.1898 25.5709 24.27 25.7364 24.4152L28.2339 26.6119C28.1838 26.6138 28.1316 26.6148 28.0774 26.6148C27.2857 26.6148 26.9257 26.3935 26.4703 26.1136C25.9541 25.7964 25.3692 25.4368 24.2446 25.4368C23.1204 25.4368 22.5355 25.7964 22.0193 26.1136C21.5639 26.3935 21.2042 26.6148 20.4121 26.6148C19.6201 26.6148 19.2604 26.3935 18.8049 26.1136C18.2888 25.7964 17.7039 25.4368 16.5796 25.4368C15.4551 25.4368 14.8702 25.7964 14.354 26.1136C13.8986 26.3935 13.5389 26.6148 12.7468 26.6148C11.9548 26.6148 11.5951 26.3935 11.1396 26.1136C10.6235 25.7964 10.0386 25.4368 8.91403 25.4368C7.72599 25.4368 7.14636 25.7521 6.58581 26.0568C6.1604 26.2879 5.75844 26.5066 4.99426 26.6212C3.91476 26.7833 2.90096 26.5791 2.34823 26.0885C2.05983 25.8327 1.91375 25.5119 1.91406 25.1356ZM31.919 39.4309H8.92091C4.62108 39.4309 1.12297 35.8401 1.12297 31.4268C1.12297 30.8528 1.57779 30.386 2.13709 30.386H29.1019C29.4341 30.386 29.7034 30.1095 29.7034 29.7685C29.7034 29.4276 29.4341 29.1511 29.1019 29.1511H3.19187V27.7992C3.53377 27.8724 3.89787 27.9109 4.27606 27.9109C4.56696 27.9109 4.86601 27.8884 5.1688 27.8431C6.13819 27.6974 6.67528 27.4055 7.14918 27.148C7.63872 26.8819 8.02535 26.6716 8.91434 26.6716C9.70605 26.6716 10.0661 26.8928 10.5215 27.1728C11.0377 27.49 11.6226 27.8496 12.7471 27.8496C13.8714 27.8496 14.4563 27.49 14.9724 27.1728C15.4279 26.8928 15.7876 26.6716 16.5796 26.6716C17.3717 26.6716 17.7314 26.8928 18.1868 27.1728C18.703 27.49 19.2879 27.8496 20.4125 27.8496C21.5367 27.8496 22.1216 27.49 22.6378 27.1728C23.0932 26.8928 23.4529 26.6716 24.245 26.6716C25.037 26.6716 25.3967 26.8928 25.8521 27.1728C26.3683 27.49 26.9532 27.8496 28.0774 27.8496C28.613 27.8496 29.0622 27.7699 29.4938 27.5985C29.9008 27.8053 30.344 27.9086 30.7873 27.9086C31.5446 27.9086 32.3 27.6088 32.8659 27.0177L33.0342 26.8421C33.2603 26.9239 33.4577 27.0302 33.6754 27.1484C34.1493 27.4059 34.6864 27.6974 35.6558 27.8431C35.9586 27.8887 36.2576 27.9109 36.5485 27.9109C36.9377 27.9109 37.3118 27.8701 37.6624 27.7927V29.1511H31.9009C31.5687 29.1511 31.2993 29.4276 31.2993 29.7685C31.2993 30.1095 31.5687 30.386 31.9009 30.386H38.7028C39.2621 30.386 39.7173 30.8528 39.7173 31.4268C39.7169 35.8401 36.2188 39.4309 31.919 39.4309Z" fill="black"/>
</g>
<defs>
<clipPath id="clip0">
<rect width="41" height="42" fill="white"/>
</clipPath>
</defs>
</svg>
