<svg width="100" height="100" viewBox="0 0 100 100" fill="none" xmlns="http://www.w3.org/2000/svg">
<g clip-path="url(#clip0)">
<path d="M72.0339 38.9832H34.7069L32.8133 49.2031C32.3209 56.6068 35.8531 63.7018 42.0576 67.7711C58.6715 67.5021 72.0339 54.7455 72.0339 38.9832Z" fill="#C9E873"/>
<path d="M73.9664 49.2031L72.0811 38.9832H72.034C72.034 54.7455 58.6716 67.5021 42.0576 67.771C46.3876 70.6503 51.6536 71.7692 56.7797 70.8985C67.2364 69.1647 74.6715 59.7798 73.9664 49.2031Z" fill="#C9E873"/>
<path d="M72.0811 38.9829L68.6441 20.3389H62.7119L56.7797 38.9829H72.0811Z" fill="#E6E7E8"/>
<path d="M62.7119 20.3389H38.1356L34.7632 38.6776L34.7069 38.9829H56.7797L62.7119 20.3389Z" fill="#E6E7E8"/>
<path d="M19.4915 20.3389H38.1356L24.9495 7.15283C21.448 10.6461 19.4833 15.3924 19.4915 20.3389Z" fill="#C4C4C4"/>
<path d="M24.9495 7.15284L38.1356 20.3389V1.69485C33.1891 1.68657 28.4428 3.65129 24.9495 7.15284Z" fill="#C9E873"/>
<path d="M24.9495 33.5249L38.1356 20.3389V38.9829C33.1891 38.9912 28.4428 37.0273 24.9495 33.5249Z" fill="#C4C4C4"/>
<path d="M38.1356 1.69485V20.3389L51.3217 7.15284C47.8284 3.65129 43.0822 1.68657 38.1356 1.69485Z" fill="#C4C4C4"/>
<path d="M38.1356 38.9829V20.3389L51.3217 33.5249C47.8284 37.0273 43.0822 38.9912 38.1356 38.9829Z" fill="#C9E873"/>
<path d="M51.3217 7.15283L38.1356 20.3389H56.7797C56.788 15.3924 54.8241 10.6461 51.3217 7.15283Z" fill="#C9E873"/>
<path d="M34.7631 38.6776L38.1356 20.3389L24.9495 33.5249C27.6202 36.2006 31.0439 37.9981 34.7631 38.6776Z" fill="#C4C4C4"/>
<path d="M24.9495 33.5249L38.1356 20.3389H19.4915C19.4833 25.2854 21.448 30.0317 24.9495 33.5249Z" fill="#C9E873"/>
<path d="M51.3217 33.5249L38.1356 20.3389H56.7797C56.788 25.2854 54.8241 30.0317 51.3217 33.5249Z" fill="#C4C4C4"/>
<path d="M50 70.8984V94.9153C45.483 94.9699 41.062 96.2212 37.1864 98.5426L34.7458 100H72.0339L69.5933 98.5426C65.7185 96.2212 61.2967 94.9699 56.7797 94.9153V70.8984C54.5361 71.2824 52.2436 71.2824 50 70.8984Z" fill="#C4C4C4"/>
<path d="M41.6454 53.729C41.3996 52.7938 41.2647 51.833 41.244 50.8664C41.2051 49.9386 40.4421 49.207 39.5135 49.207C39.0641 49.2161 38.6362 49.404 38.3251 49.7284C38.0139 50.0537 37.8442 50.489 37.8542 50.9392C37.879 52.174 38.0495 53.4013 38.3623 54.5963C38.5593 55.3395 39.2313 55.8568 40.0001 55.8576C40.1466 55.8568 40.2931 55.8386 40.4354 55.8013C40.8716 55.6879 41.244 55.4049 41.4708 55.0159C41.6975 54.6278 41.7604 54.1643 41.6454 53.729Z" fill="#F1F2F2"/>
<path d="M53.3898 62.7119C52.7261 62.7119 52.0632 62.6556 51.4086 62.5423C48.5153 62.078 45.8893 60.5809 44.0157 58.329C43.635 57.844 43.0217 57.604 42.4134 57.7016C41.8043 57.7993 41.297 58.2197 41.0876 58.799C40.8782 59.3784 40.9999 60.0255 41.4054 60.4898C44.379 64.0336 48.7636 66.086 53.3898 66.1017C54.3258 66.1017 55.0847 65.3428 55.0847 64.4068C55.0847 63.4708 54.3258 62.7119 53.3898 62.7119Z" fill="#F1F2F2"/>
<path d="M78.8136 -0.000201126H71.1219C68.9031 -0.00930469 66.9376 1.4274 66.2714 3.54356L55.5217 38.9828H59.0647L69.5089 4.5764C69.7299 3.87129 70.3829 3.39128 71.1219 3.38963H78.8136C79.7496 3.38963 80.5085 2.63072 80.5085 1.69471C80.5085 0.758704 79.7496 -0.000201126 78.8136 -0.000201126Z" fill="#C4C4C4"/>
</g>
<defs>
<clipPath id="clip0">
<rect width="100" height="100" fill="white"/>
</clipPath>
</defs>
</svg>
