<svg width="100" height="100" viewBox="0 0 100 100" fill="none" xmlns="http://www.w3.org/2000/svg">
<g clip-path="url(#clip0)">
<path d="M15.6557 36.2104C9.25705 29.8118 8.51714 20.1947 14.0022 14.7096L15.6557 13.0561C21.1408 7.57104 30.7579 8.31095 37.1565 14.7096C43.0939 20.647 43.0939 30.2731 37.1565 36.2104C31.2192 42.1478 21.5931 42.1478 15.6557 36.2104Z" fill="#C4C4C4"/>
<path d="M23.5088 20.2309C21.5478 20.2309 19.5886 19.4856 18.0943 17.9931C17.3869 17.2857 17.3869 16.1424 18.0943 15.4351C18.7998 14.7277 19.945 14.7277 20.6523 15.4351C22.2262 17.0071 24.7897 17.0071 26.3636 15.4351C27.0709 14.7277 28.216 14.7277 28.9234 15.4351C29.6289 16.1424 29.6289 17.2875 28.9234 17.9931C27.4291 19.4856 25.4681 20.2309 23.5088 20.2309Z" fill="#B8E045"/>
<path d="M12.3921 61.4758L20.5329 81.5293C25.9059 91.4069 30.2295 93.9993 40.7276 98.0244C47.5894 100.657 60.5876 100.657 67.3969 98.0244C77.7846 94.0101 82.1788 91.4828 87.4993 81.7012L95.7324 61.4758C91.1265 56.9151 83.6713 62.0022 79.0636 66.5629C74.4812 62.0022 67.0622 65.2495 62.4798 69.8102C57.8975 65.2495 50.4785 65.2495 45.8961 69.8102C41.2667 65.2495 33.7735 62.0022 29.1441 66.5629C24.5147 62.0022 17.0215 56.9169 12.3921 61.4758Z" fill="#C4C4C4"/>
<path d="M35.7274 88.8074C35.0472 88.8074 34.396 88.4221 34.0884 87.7654L29.0881 77.0847C28.6648 76.1801 29.0538 75.1019 29.9601 74.6804C30.8665 74.2589 31.9429 74.6442 32.3662 75.5506L37.3665 86.2313C37.7898 87.1359 37.4008 88.2141 36.4945 88.6356C36.2448 88.7532 35.9843 88.8074 35.7274 88.8074Z" fill="#C9E873"/>
<path d="M72.3954 88.8074C72.1385 88.8074 71.8761 88.7532 71.6301 88.6356C70.7256 88.2141 70.3348 87.1359 70.7581 86.2313L75.7584 75.5506C76.1799 74.6442 77.2618 74.2499 78.1645 74.6804C79.069 75.1019 79.4598 76.1801 79.0364 77.0847L74.0362 87.7654C73.7268 88.4221 73.0756 88.8074 72.3954 88.8074Z" fill="#C9E873"/>
<path d="M60.7306 92.5994C60.6383 92.5994 60.5424 92.5922 60.4483 92.5777C59.4624 92.4239 58.7858 91.4977 58.9396 90.5099L60.6057 79.8291C60.7595 78.8414 61.6839 78.172 62.6735 78.3204C63.6594 78.4741 64.336 79.4004 64.1823 80.3882L62.5161 91.0689C62.3768 91.9608 61.6061 92.5994 60.7306 92.5994Z" fill="#C9E873"/>
<path d="M47.3923 92.5994C46.5167 92.5994 45.746 91.9608 45.6067 91.0689L43.9406 80.3882C43.7868 79.4004 44.4634 78.4741 45.4493 78.3204C46.4371 78.172 47.3615 78.8414 47.5171 79.8291L49.1832 90.5099C49.337 91.4977 48.6604 92.4239 47.6745 92.5777C47.5786 92.5922 47.4845 92.5994 47.3923 92.5994Z" fill="#C9E873"/>
<path d="M90.1315 45.6936C90.3957 44.7945 90.5368 43.8737 90.5368 42.9366C90.5368 37.9001 86.5641 33.3341 80.122 29.9818C80.122 29.9818 80.292 1.01683 56.6728 3.35776C56.6728 3.35776 64.289 15.6902 53.6173 15.8024C48.4162 15.8566 43.5751 16.5477 39.4577 17.6983C42.9347 23.5343 42.1785 31.1903 37.1547 36.2141C31.9446 41.4242 23.8924 42.0592 17.9858 38.1227C17.1681 39.6604 16.6959 41.2704 16.6959 42.9384C16.6959 43.8755 16.8371 44.7963 17.1012 45.6954C12.8173 48.8649 10.3244 52.626 10.3244 56.6638C10.3244 59.4263 11.4931 62.0603 13.5988 64.4627L12.3922 61.4759C17.0216 56.9153 24.5148 62.0024 29.1442 66.5631C33.7736 62.0024 41.2667 65.2497 45.8962 69.8103C50.4785 65.2497 57.8975 65.2497 62.4799 69.8103C67.0623 65.2497 74.4813 62.0024 79.0636 66.5631C83.6605 62.0132 91.0922 56.9424 95.6999 61.4506C96.4832 59.9129 96.9083 58.3119 96.9083 56.6602C96.9083 52.6224 94.4154 48.8631 90.1315 45.6936Z" fill="#C9E873"/>
<path d="M22.9897 14.8082C22.0616 14.8082 21.2729 14.0972 21.1897 13.1583C21.1806 13.0625 20.7229 8.78944 17.2061 6.04508C14.393 3.85067 10.3443 3.14514 5.17395 3.93208C4.19705 4.08585 3.26357 3.40745 3.11161 2.41789C2.95965 1.43014 3.63805 0.507513 4.6258 0.355551C10.849 -0.601447 15.8493 0.368215 19.4801 3.23197C24.2488 6.98941 24.7716 12.6102 24.7933 12.8454C24.8765 13.8422 24.1384 14.716 23.1416 14.7992C23.091 14.8064 23.0403 14.8082 22.9897 14.8082Z" fill="#C9E873"/>
<path d="M54.0658 36.4456C53.0672 36.4456 52.2568 35.637 52.2568 34.6365C52.2568 33.6361 53.0672 32.8275 54.0658 32.8275C61.5409 32.8275 68.6325 31.8813 74.5717 30.0867C75.5251 29.7991 76.5381 30.34 76.8276 31.2952C77.1152 32.2522 76.5743 33.2617 75.6191 33.5493C69.3435 35.4434 61.8901 36.4456 54.0658 36.4456Z" fill="#C4C4C4"/>
<path d="M27.232 52.6514C27.0257 52.6514 26.8177 52.6152 26.6133 52.541C24.6034 51.8102 22.6677 50.9581 20.8586 50.012C19.974 49.5488 19.6302 48.458 20.0934 47.5697C20.5565 46.6851 21.6492 46.3395 22.5356 46.8063C24.2036 47.6765 25.9927 48.4634 27.8525 49.1418C28.7914 49.4837 29.2744 50.5221 28.9325 51.461C28.6647 52.1955 27.9701 52.6514 27.232 52.6514Z" fill="#C4C4C4"/>
<path d="M53.6136 56.8973C49.9195 56.8973 46.2453 56.6748 42.6145 56.228C41.6231 56.1068 40.9175 55.2059 41.0388 54.2127C41.1618 53.2213 42.079 52.5158 43.0559 52.6388C50.3139 53.5307 57.7528 53.4927 65.1663 52.5284C66.1613 52.3837 67.0641 53.0965 67.1943 54.0879C67.3246 55.0792 66.6244 55.9874 65.6331 56.114C61.6224 56.6368 57.6062 56.8973 53.6136 56.8973Z" fill="#C4C4C4"/>
<path d="M75.4564 54.1474C74.6604 54.1474 73.9314 53.6192 73.7125 52.8141C73.4502 51.8517 74.0182 50.8567 74.9824 50.5926C78.7272 49.5723 82.0632 48.2932 84.8962 46.7971C85.779 46.334 86.8753 46.6705 87.3402 47.5533C87.807 48.4362 87.4687 49.5307 86.5858 49.9992C83.5195 51.6183 79.9357 52.9914 75.9358 54.0841C75.7748 54.1275 75.6138 54.1474 75.4564 54.1474Z" fill="#C4C4C4"/>
</g>
<defs>
<clipPath id="clip0">
<rect width="100" height="100" fill="white"/>
</clipPath>
</defs>
</svg>
