<svg width="58" height="58" viewBox="0 0 58 58" fill="none" xmlns="http://www.w3.org/2000/svg">
<path d="M41.0717 19.5479L40.4511 17.5053C39.6628 15.1851 37.1428 13.9433 34.8225 14.7316C33.5173 15.175 32.4922 16.2001 32.0488 17.5053L31.4282 19.5479C30.9059 21.2705 30.7964 23.0918 31.1082 24.8645C31.3927 26.3571 32.3402 27.6394 33.6834 28.3494L32.9884 43.8866C32.8953 44.7538 33.1766 45.6196 33.7617 46.2665C35.02 47.6428 37.1558 47.7385 38.5321 46.4803C38.6065 46.4123 38.6778 46.341 38.7459 46.2665C39.3179 45.638 39.5987 44.7976 39.5192 43.9514L38.8203 28.3474C40.1617 27.6371 41.1077 26.3556 41.3916 24.8645C41.7035 23.0918 41.5939 21.2705 41.0717 19.5479ZM39.4873 24.5281C39.278 25.6004 38.5139 26.4802 37.4815 26.8375C37.0896 26.9848 36.8372 27.3676 36.856 27.7858L37.5907 44.1041C37.6245 44.4242 37.5189 44.7433 37.3007 44.9799C36.7186 45.5562 35.7812 45.5562 35.1992 44.9799C34.9701 44.7242 34.866 44.3801 34.915 44.0403L35.6438 27.7858C35.6627 27.3676 35.4103 26.9848 35.0184 26.8375C33.986 26.4802 33.2218 25.6004 33.0126 24.5281C32.754 23.0564 32.8451 21.5444 33.2784 20.1143L33.899 18.0708C34.3792 16.7725 35.821 16.1092 37.1194 16.5894C37.8059 16.8433 38.347 17.3845 38.6009 18.0708L39.2215 20.1143C39.6543 21.5445 39.7454 23.0564 39.4873 24.5281Z" fill="black"/>
<path d="M26.1 14.5C25.5662 14.5 25.1333 14.9328 25.1333 15.4667V23.7665L22.5166 26.3832C22.323 26.5761 22.2201 26.842 22.2333 27.115L23.0792 44.0317C23.0994 44.3965 22.9669 44.7533 22.7138 45.0167C22.1847 45.5505 21.3229 45.5544 20.7889 45.0252C20.786 45.0224 20.7832 45.0195 20.7804 45.0167C20.5272 44.7533 20.3949 44.3965 20.415 44.0317L21.2667 27.115C21.2802 26.8422 21.1776 26.5763 20.9844 26.3832L18.3667 23.7665V15.4667C18.3667 14.9328 17.9339 14.5 17.4 14.5C16.8662 14.5 16.4333 14.9328 16.4333 15.4667V24.1667C16.4333 24.4231 16.5353 24.6688 16.7166 24.8501L19.313 27.4475L18.4885 43.9379C18.4008 45.7392 19.7899 47.2706 21.5911 47.3583C23.3924 47.4461 24.9238 46.057 25.0115 44.2557C25.0167 44.1498 25.0167 44.0439 25.0115 43.938L24.187 27.4477L26.7834 24.8502C26.9647 24.669 27.0667 24.4232 27.0667 24.1668V15.4668C27.0667 14.9328 26.6339 14.5 26.1 14.5Z" fill="black"/>
<path d="M20.3 14.5C19.7662 14.5 19.3334 14.9328 19.3334 15.4667V23.2C19.3334 23.7338 19.7662 24.1667 20.3 24.1667C20.8339 24.1667 21.2667 23.7338 21.2667 23.2V15.4667C21.2667 14.9328 20.8339 14.5 20.3 14.5Z" fill="black"/>
<path d="M23.1999 14.5C22.6661 14.5 22.2333 14.9328 22.2333 15.4667V23.2C22.2333 23.7338 22.6661 24.1667 23.1999 24.1667C23.7338 24.1667 24.1666 23.7338 24.1666 23.2V15.4667C24.1666 14.9328 23.7338 14.5 23.1999 14.5Z" fill="black"/>
<path d="M29 0C12.9838 0 0 12.9838 0 29C0 45.0162 12.9838 58 29 58C45.0162 58 58 45.0162 58 29C57.9819 12.9913 45.0087 0.018125 29 0ZM29 56.0667C14.0515 56.0667 1.93333 43.9485 1.93333 29C1.93333 14.0515 14.0515 1.93333 29 1.93333C43.9485 1.93333 56.0667 14.0515 56.0667 29C56.0496 43.9414 43.9414 56.0496 29 56.0667Z" fill="black"/>
<path d="M32.1379 47.1458C32.0861 46.6145 31.6133 46.2257 31.0818 46.2776C31.0694 46.2788 31.0569 46.2802 31.0445 46.2819L31.0484 46.281C29.6874 46.439 28.3126 46.439 26.9516 46.281C26.4212 46.2187 25.9409 46.5983 25.8786 47.1287C25.8164 47.6592 26.1959 48.1395 26.7264 48.2017C28.2357 48.378 29.7604 48.378 31.2697 48.2017C31.801 48.15 32.1897 47.6772 32.1379 47.1458Z" fill="black"/>
<path d="M43.7899 16.5435C43.4469 16.1345 42.8372 16.0809 42.4282 16.4241C42.4268 16.4252 42.4255 16.4264 42.424 16.4275C42.016 16.7716 41.964 17.3813 42.308 17.7895C48.1364 24.7084 47.6906 34.9393 41.2824 41.3249C40.9042 41.7018 40.9031 42.3141 41.28 42.6923C41.6569 43.0705 42.2691 43.0716 42.6473 42.6947C49.7689 35.6002 50.2655 24.232 43.7899 16.5435Z" fill="black"/>
<path d="M22.5231 12.7774C22.5224 12.7774 22.5217 12.7772 22.521 12.7772C22.5199 12.7772 22.5188 12.7774 22.5176 12.7774H22.5231Z" fill="black"/>
<path d="M33.5597 10.207C29.7819 9.30164 25.8198 9.545 22.1811 10.9059C21.6813 11.0938 21.4287 11.6514 21.6166 12.151C21.7582 12.5276 22.1183 12.7769 22.5205 12.7773C22.6362 12.7767 22.7507 12.7555 22.8587 12.7146C26.1355 11.4892 29.7035 11.2704 33.1054 12.0862C33.6244 12.2117 34.1467 11.8928 34.2722 11.3738C34.3976 10.8548 34.0787 10.3325 33.5597 10.207Z" fill="black"/>
<path d="M16.674 41.2766C13.4153 38.0234 11.5889 33.6047 11.6 29C11.5904 25.3211 12.7557 21.7352 14.9263 18.7649C15.2471 18.3381 15.1612 17.7321 14.7344 17.4113C14.3076 17.0905 13.7016 17.1764 13.3808 17.6032C13.3751 17.6108 13.3696 17.6184 13.3641 17.6262C7.77524 25.3097 8.59763 35.9154 15.3042 42.6454C15.6822 43.0236 16.2953 43.0239 16.6735 42.6459C17.0517 42.2679 17.052 41.6548 16.674 41.2766Z" fill="black"/>
</svg>
