<svg width="100" height="100" viewBox="0 0 100 100" fill="none" xmlns="http://www.w3.org/2000/svg">
<g clip-path="url(#clip0)">
<path d="M96.6346 43.0841C97.8654 40.33 98.041 37.1653 96.9861 34.2353C95.8727 31.3052 93.7631 29.0198 91.0086 27.7304C91.5361 21.3429 86.8481 15.7169 80.4604 15.1308C78.8197 9.03643 72.4906 5.34444 66.2789 6.98545C62.6453 1.77002 55.2813 0.480571 50.0068 4.11397C44.7324 0.480181 37.3293 1.82842 33.6959 6.98545C27.4842 5.34444 21.1551 9.03624 19.5145 15.131C13.1266 15.7171 8.43867 21.3431 8.96621 27.7306C3.22305 30.4263 0.703125 37.2827 3.34023 43.0841C1.23066 45.2524 0 48.1825 0 51.2886C0 58.2622 6.03613 63.4193 12.1307 62.7159H87.5514C98.2168 63.7708 104.136 50.7023 96.6346 43.0841Z" fill="#C4C4C4"/>
<path d="M87.5512 62.716H50.007V4.114C55.2814 0.480214 62.6455 1.76967 66.2789 6.98549C72.4906 5.34447 78.8197 9.03627 80.4603 15.131C86.8482 15.7171 91.5361 21.3431 91.0086 27.7306C93.7631 29.0201 95.8726 31.3054 96.9861 34.2355C98.041 37.1656 97.8654 40.3302 96.6346 43.0843C104.136 50.7023 98.2168 63.7708 87.5512 62.716Z" fill="#C4C4C4"/>
<path d="M96.6346 78.2452C99.2717 72.4436 96.752 65.5874 91.0086 62.8915C91.5361 56.504 86.848 50.878 80.4604 50.2919C78.8197 44.2561 72.5492 40.5054 66.2789 42.1464C62.6455 36.9893 55.3397 35.5829 50.007 39.2749C44.6744 35.5829 37.2709 37.0479 33.6961 42.1464C27.4258 40.5054 21.1553 44.2559 19.5147 50.2919C13.1268 50.878 8.43887 56.504 8.96641 62.8915C3.22305 65.5874 0.703125 72.4438 3.34023 78.2452C1.23066 80.4136 0 83.3436 0 86.4497C0 94.185 7.2666 99.5764 14.4162 97.4669C26.0191 94.068 38.1105 92.4268 50.0068 92.4268C61.9031 92.4268 73.9555 94.0679 85.5584 97.4669C96.8105 100.749 104.839 86.5667 96.6346 78.2452Z" fill="#C9E873"/>
<path d="M75.3621 68.2829C74.0731 69.2208 72.2565 68.986 71.26 67.6972C65.9859 60.6649 57.9184 57.1487 50.0072 57.1487C42.0961 57.1487 33.9894 60.6645 28.7154 67.6972C27.7189 68.9862 25.9023 69.2208 24.6133 68.2829C23.3238 67.2868 23.0308 65.4702 24.0271 64.1809C30.4736 55.6249 40.3381 51.3472 50.0074 51.3472C59.6768 51.3472 69.5023 55.6249 75.9486 64.1809C76.9443 65.4702 76.6514 67.2868 75.3621 68.2829Z" fill="#C4C4C4"/>
<path d="M75.3621 33.1218C74.0731 34.0597 72.2565 33.8251 71.26 32.536C65.9859 25.5038 57.9184 21.9878 50.0072 21.9878C42.0961 21.9878 33.9894 25.5038 28.7154 32.536C27.7189 33.8251 25.9023 34.0597 24.6133 33.1218C23.3238 32.1257 23.0308 30.3091 24.0271 29.0198C30.4732 20.464 40.3377 16.186 50.007 16.186C59.6764 16.186 69.502 20.4638 75.9483 29.0198C76.9443 30.3091 76.6514 32.1255 75.3621 33.1218Z" fill="#B8E045"/>
<path d="M75.9483 64.181C76.9444 65.47 76.6514 67.2866 75.3621 68.2829C74.0731 69.2208 72.2565 68.986 71.26 67.6972C65.986 60.6649 57.9184 57.1487 50.0072 57.1487V51.3472C59.6764 51.3472 69.5018 55.6251 75.9483 64.181Z" fill="#C4C4C4"/>
<path d="M50.007 21.9876V16.186C59.6765 16.186 69.5019 20.4638 75.9482 29.0198C76.9443 30.3089 76.6514 32.1255 75.3621 33.1218C74.073 34.0597 72.2564 33.8251 71.2599 32.536C65.9857 25.5036 57.918 21.9876 50.007 21.9876Z" fill="#B8E045"/>
</g>
<defs>
<clipPath id="clip0">
<rect width="100" height="100" fill="white"/>
</clipPath>
</defs>
</svg>
