<svg width="60" height="49" viewBox="0 0 60 49" fill="none" xmlns="http://www.w3.org/2000/svg">
<path d="M59.7598 26.6033C59.294 25.6495 58.2291 25.0332 57.0467 25.0332C56.6462 25.0332 56.2555 25.1038 55.8853 25.243L37.3143 32.2284L5.14412 0.856131C4.05579 -0.205256 2.18637 -0.29169 0.976818 0.663622C0.390974 1.12644 0.0456154 1.7617 0.00418218 2.45253C-0.0372511 3.14336 0.230282 3.80699 0.757603 4.32107L3.45359 6.95025C3.73465 13.4412 5.48837 19.9825 8.40382 25.3951C11.5588 31.2524 16.0058 35.6547 21.3435 38.2357L7.68999 43.3716C6.19458 43.9341 5.49931 45.4596 6.14023 46.7722C6.60608 47.7259 7.67093 48.3422 8.85331 48.3422C9.25387 48.3422 9.64472 48.2716 10.0147 48.1323L30.2118 40.5352C30.2456 40.54 30.2799 40.5433 30.3149 40.5449C30.6974 40.563 31.0876 40.5723 31.4746 40.5723C33.5935 40.5723 35.6247 40.4366 37.5198 40.1716L45.0186 47.4843C45.5773 48.0292 46.3769 48.3417 47.2125 48.3417C47.9423 48.3417 48.6431 48.1056 49.1858 47.6769C49.7716 47.2142 50.1171 46.5789 50.1586 45.888C50.2 45.1973 49.9325 44.5336 49.4078 44.0221L43.9119 38.6184C47.9799 37.1364 51.2685 34.815 53.6959 31.7017L58.21 30.0038C58.9344 29.7313 59.4947 29.2275 59.7874 28.5852C60.0802 27.943 60.0702 27.239 59.7598 26.6033ZM1.96863 2.54328C1.9824 2.313 2.09761 2.10118 2.29272 1.94698C2.69599 1.62843 3.31909 1.65724 3.6819 2.01107L35.4044 32.9468L33.4945 33.6652L23.606 24.022V22.1201C23.606 21.6434 23.1656 21.2568 22.6224 21.2568C22.0851 21.2568 21.6493 21.635 21.6397 22.1045L2.21982 3.16612C2.044 2.99477 1.95486 2.77355 1.96863 2.54328ZM23.7012 37.349C23.6694 37.3362 23.6376 37.3235 23.606 37.3105V26.6028L31.5847 34.3836L23.7012 37.349ZM10.1824 24.6574C7.6949 20.0392 6.08565 14.5588 5.56435 9.00871L21.6388 24.6846V36.3946C16.9548 33.95 13.0264 29.9375 10.1824 24.6574ZM35.0892 38.7007L35.7547 38.4503L35.9317 38.623C35.6537 38.6518 35.3725 38.6774 35.0892 38.7007ZM48.1941 45.7974C48.1803 46.0276 48.0651 46.2394 47.8698 46.3937C47.6889 46.5365 47.4554 46.6153 47.2125 46.6153C46.9296 46.6153 46.6698 46.5139 46.4808 46.3296L37.6645 37.732L39.6237 36.9951L47.9429 45.1746C48.1186 45.3459 48.2079 45.5671 48.1941 45.7974ZM42.5174 37.2472L41.5311 36.2775L49.7536 33.1846C47.753 34.9473 45.3314 36.3078 42.5174 37.2472ZM57.9609 27.9439C57.8634 28.158 57.6767 28.326 57.4352 28.4168L9.23974 46.5454C9.11593 46.592 8.98597 46.6156 8.85331 46.6156C8.4589 46.6156 8.10358 46.4101 7.9483 46.0921C7.73474 45.6545 7.96637 45.1459 8.46492 44.9585L21.6388 40.0031V40.2486C21.6388 40.7253 22.0792 41.1119 22.6224 41.1119C23.1656 41.1119 23.606 40.7253 23.606 40.2486V39.2631L56.6601 26.8299C56.7841 26.7833 56.9141 26.7596 57.0467 26.7596C57.4411 26.7596 57.7964 26.9651 57.9517 27.2833C58.0552 27.4952 58.0584 27.7298 57.9609 27.9439Z" fill="black"/>
<path d="M36.3928 34.5297C36.1333 34.5297 35.8801 34.6214 35.6969 34.7822C35.5137 34.943 35.4092 35.1653 35.4092 35.3929C35.4092 35.6196 35.5137 35.8429 35.6969 36.0037C35.8801 36.1634 36.1333 36.2562 36.3928 36.2562C36.651 36.2562 36.9055 36.1634 37.0886 36.0037C37.2706 35.8429 37.3763 35.6196 37.3763 35.3929C37.3763 35.1653 37.2706 34.943 37.0886 34.7822C36.9055 34.6215 36.6508 34.5297 36.3928 34.5297Z" fill="black"/>
</svg>
