<svg width="59" height="55" viewBox="0 0 59 55" fill="none" xmlns="http://www.w3.org/2000/svg">
<path d="M57.0333 16.5V11.7003L50.7577 0H8.24231L1.96667 11.7003V16.5C1.9711 17.8041 2.72052 19.0071 3.93334 19.657V36.6667H1.96667V55H57.0333V36.6667H55.0667V19.657C56.2795 19.0071 57.0289 17.8041 57.0333 16.5ZM49.5423 1.83333L55.0667 12.133V12.8333H51.1333H50.8914L47.5206 1.83333H49.5423ZM45.4752 1.83333L48.8471 12.8333H45.2333H45.1026L43.4171 1.83333H45.4752ZM49.1667 14.6667V16.5C49.1667 17.5126 48.2862 18.3333 47.2 18.3333C46.1138 18.3333 45.2333 17.5126 45.2333 16.5V14.6667H49.1667ZM39.3333 1.83333H41.4308L43.1162 12.8333H39.3333V1.83333ZM39.3333 14.6667H43.2667V16.5C43.2667 17.5126 42.3862 18.3333 41.3 18.3333C40.2138 18.3333 39.3333 17.5126 39.3333 16.5V14.6667ZM33.4333 1.83333H37.3667V12.8333H33.4333V1.83333ZM33.4333 14.6667H37.3667V16.5C37.3667 17.5126 36.4862 18.3333 35.4 18.3333C34.3138 18.3333 33.4333 17.5126 33.4333 16.5V14.6667ZM27.5333 1.83333H31.4667V12.8333H27.5333V1.83333ZM27.5333 14.6667H31.4667V16.5C31.4667 17.5126 30.5862 18.3333 29.5 18.3333C28.4138 18.3333 27.5333 17.5126 27.5333 16.5V14.6667ZM21.6333 1.83333H25.5667V12.8333H21.6333V1.83333ZM21.6333 14.6667H25.5667V16.5C25.5667 17.5126 24.6862 18.3333 23.6 18.3333C22.5138 18.3333 21.6333 17.5126 21.6333 16.5V14.6667ZM20.65 18.8998C22.0422 20.4186 24.4914 20.5978 26.1207 19.3001C26.2748 19.1774 26.4184 19.0435 26.55 18.8998C27.9422 20.4186 30.3914 20.5978 32.0207 19.3001C32.1748 19.1774 32.3184 19.0435 32.45 18.8998C33.8422 20.4186 36.2914 20.5978 37.9207 19.3001C38.0748 19.1774 38.2184 19.0435 38.35 18.8998C39.7422 20.4186 42.1914 20.5978 43.8207 19.3001C43.9748 19.1774 44.1184 19.0435 44.25 18.8998C45.6422 20.4186 48.0914 20.5978 49.7207 19.3001C49.8748 19.1774 50.0184 19.0435 50.15 18.8998C50.8897 19.701 51.9661 20.1632 53.1 20.1667V36.6667H51.1333V29.3333H48.1833V26.5833C48.1795 25.5249 47.5245 24.5624 46.4989 24.1083L47.1499 22.2888L45.2815 21.7085L44.487 23.9314C44.0331 24.043 43.6147 24.2547 43.2667 24.5483C43.0567 24.3714 42.8206 24.2235 42.5656 24.1093L43.2165 22.2897L41.3482 21.7094L40.5537 23.9323C40.0998 24.0437 39.6814 24.2549 39.3333 24.5483C39.1234 24.3714 38.8873 24.2235 38.6322 24.1093L39.2832 22.2897L37.4149 21.7094L36.6203 23.9323C35.3259 24.2479 34.4213 25.3361 34.4167 26.5833V29.3333H31.4667V36.6667H27.5333V35.75C27.5298 33.5699 25.882 31.6928 23.5902 31.2583C23.5902 31.2272 23.6 31.1978 23.6 31.1667V30.25C23.5968 27.72 21.3973 25.6696 18.6833 25.6667H17.7C16.929 25.6683 16.23 26.0897 15.9123 26.7447C15.038 26.0532 13.9299 25.6714 12.7833 25.6667H11.8C10.7138 25.6667 9.83334 26.4874 9.83334 27.5V28.4167C9.83777 29.4118 10.1929 30.3781 10.8442 31.1667H10.8167H9.83334C8.74713 31.1667 7.86667 31.9874 7.86667 33V33.9167C7.87048 34.9116 8.22498 35.8779 8.87557 36.6667H5.90001V20.1667C7.03391 20.1632 8.1103 19.701 8.85001 18.8998C10.2422 20.4186 12.6914 20.5978 14.3207 19.3001C14.4748 19.1774 14.6184 19.0435 14.75 18.8998C16.1422 20.4186 18.5914 20.5978 20.2207 19.3001C20.3748 19.1774 20.5184 19.0435 20.65 18.8998ZM38.35 31.1667H49.1667V36.6667H33.4333V31.1667H38.35ZM36.3833 29.3333V26.5833C36.3833 26.0771 36.8236 25.6667 37.3667 25.6667C37.9097 25.6667 38.35 26.0771 38.35 26.5833V29.3333H36.3833ZM40.3167 29.3333V26.5833C40.3167 26.0771 40.757 25.6667 41.3 25.6667C41.8431 25.6667 42.2833 26.0771 42.2833 26.5833V29.3333H40.3167ZM44.25 29.3333V26.5833C44.25 26.0771 44.6903 25.6667 45.2333 25.6667C45.7764 25.6667 46.2167 26.0771 46.2167 26.5833V29.3333H44.25ZM11.8 28.4167V27.5H12.7833C14.4126 27.5 15.7333 28.7312 15.7333 30.25V31.1667H14.75C13.1207 31.1667 11.8 29.9355 11.8 28.4167ZM13.7667 35.75V36.6667H12.7833C11.1541 36.6667 9.83334 35.4355 9.83334 33.9167V33H10.8167C12.4459 33 13.7667 34.2312 13.7667 35.75ZM15.7333 33H16.7167C18.3459 33 19.6667 34.2312 19.6667 35.75V36.6667H18.6833C17.0541 36.6667 15.7333 35.4355 15.7333 33.9167V33ZM17.7 28.4167V27.5H18.6833C20.3126 27.5 21.6333 28.7312 21.6333 30.25V31.1667H20.65C19.0207 31.1667 17.7 29.9355 17.7 28.4167ZM21.6333 33H22.6167C24.2459 33 25.5667 34.2312 25.5667 35.75V36.6667H24.5833C22.9541 36.6667 21.6333 35.4355 21.6333 33.9167V33ZM9.83334 16.5V14.6667H13.7667V16.5C13.7667 17.5126 12.8862 18.3333 11.8 18.3333C10.7138 18.3333 9.83334 17.5126 9.83334 16.5ZM17.5692 1.83333H19.6667V12.8333H15.8838L17.5692 1.83333ZM15.7333 14.6667H19.6667V16.5C19.6667 17.5126 18.7862 18.3333 17.7 18.3333C16.6138 18.3333 15.7333 17.5126 15.7333 16.5V14.6667ZM15.5829 1.83333L13.8975 12.8333H10.1539L13.5248 1.83333H15.5829ZM3.93334 12.133L9.45771 1.83333H11.4794L8.10857 12.8333H3.93334V12.133ZM3.93334 14.6667H7.86667V16.5C7.86667 17.5126 6.98622 18.3333 5.90001 18.3333C4.81379 18.3333 3.93334 17.5126 3.93334 16.5V14.6667ZM55.0667 53.1667H3.93334V38.5H55.0667V53.1667ZM53.1 18.3333C52.0138 18.3333 51.1333 17.5126 51.1333 16.5V14.6667H55.0667V16.5C55.0667 17.5126 54.1862 18.3333 53.1 18.3333Z" fill="black"/>
<path d="M47.2 33H35.4V34.8333H47.2V33Z" fill="black"/>
<path d="M41.3 43.0834H38.7571L41.0118 40.9815L39.6214 39.6853L37.3597 41.7936C36.7427 41.4423 36.0346 41.2544 35.3115 41.2501H34.9968C33.6981 41.2514 32.4795 41.8359 31.7233 42.8203L30.1637 44.8562C28.8832 43.1674 26.8018 42.1642 24.5833 42.1667H23.6C22.5138 42.1667 21.6333 42.9875 21.6333 44.0001V44.9167C21.6376 48.4588 24.7169 51.3294 28.5166 51.3334H29.5C29.5869 51.3335 29.6736 51.3249 29.7586 51.3077C29.8403 51.3201 29.9227 51.3287 30.0054 51.3334H30.1313C30.5153 51.333 30.894 51.2496 31.2375 51.0896L37.11 48.3524C38.4761 47.721 39.3383 46.4206 39.3333 44.9992C39.3333 44.9708 39.3254 44.9442 39.3244 44.9167H41.3V43.0834ZM29.4941 49.4826L28.5166 49.5001C25.8026 49.4971 23.6032 47.4467 23.6 44.9167V44.0001H24.5833C26.6011 43.9947 28.4152 45.1452 29.1509 46.8967C29.381 47.4332 29.4995 48.0057 29.5 48.5834L29.4941 49.4826ZM36.2299 46.7125H36.2309L31.4666 48.9336V48.5834C31.4644 48.2999 31.4417 48.017 31.3988 47.7364C31.3899 47.675 31.3811 47.6145 31.3703 47.5531C31.3238 47.2783 31.258 47.0067 31.1736 46.74C31.1736 46.729 31.1736 46.7171 31.1657 46.7061L33.3291 43.8846C33.7153 43.3839 34.3353 43.086 34.9968 43.0834H35.3105C36.4455 43.0836 37.3655 43.9415 37.3653 44.9996C37.3652 45.7249 36.9256 46.3879 36.2299 46.7125Z" fill="black"/>
</svg>
