<svg width="59" height="56" viewBox="0 0 59 56" fill="none" xmlns="http://www.w3.org/2000/svg">
<path d="M52.4055 41.0685C51.4672 39.5251 50.0825 38.5211 48.2901 38.0848C47.8618 37.9806 47.4303 37.9152 47.0021 37.8892C47.0574 37.3046 47.0862 36.7157 47.0862 36.1277C47.0862 35.3813 47.0412 34.634 46.9518 33.8939C50.1377 33.4801 52.5953 30.9667 52.5953 27.9373C52.5953 24.6201 49.6475 21.9212 46.0242 21.9212C45.6688 21.9212 45.3181 21.9483 44.9736 21.9987C45.7185 20.2958 46.1286 18.4394 46.1286 16.4974C46.1286 15.2347 45.9563 13.9887 45.6154 12.7794C48.2294 11.7313 49.969 9.35681 49.969 6.671C49.9691 2.99261 46.698 0 42.6772 0C40.2261 0 37.9576 1.13291 36.6179 2.95859C34.4833 2.06303 32.139 1.59348 29.7737 1.59348C27.4084 1.59348 25.0642 2.06303 22.9296 2.95859C21.5897 1.13291 19.3211 0 16.8699 0C12.849 0 9.57776 2.99272 9.57776 6.67122C9.57776 9.35714 11.3176 11.7317 13.9317 12.7797C13.5907 13.9894 13.4183 15.2355 13.4183 16.4976C13.4183 18.4396 13.8285 20.296 14.5733 21.9989C14.2289 21.9485 13.8782 21.9214 13.5228 21.9214C9.89938 21.9214 6.95157 24.6202 6.95157 27.9375C6.95157 30.9667 9.40952 33.48 12.5951 33.8941C12.5058 34.6347 12.4606 35.3822 12.4606 36.1279C12.4606 36.7321 12.4911 37.337 12.5495 37.9376C12.5051 37.9367 12.4607 37.9354 12.416 37.9354C11.852 37.9354 11.2782 38.0055 10.7101 38.1437C8.91759 38.58 7.53305 39.5837 6.59458 41.1272C4.97035 43.7988 5.05528 47.7471 5.85984 50.4751C6.81963 53.7282 10.0612 56 13.7431 56C13.8974 56 14.052 55.9952 14.2062 55.9871C14.2128 55.987 14.2194 55.987 14.2261 55.9867C14.2362 55.9862 14.2464 55.9853 14.2565 55.9848C14.2685 55.9841 14.2804 55.9834 14.2922 55.9826C17.3106 55.8268 19.9678 54.1357 21.2245 51.6953C23.8221 53.2241 26.7488 54.0256 29.7733 54.0256C32.6606 54.0256 35.4732 53.2876 37.9879 51.8839C38.0284 51.9559 38.0683 52.0282 38.1115 52.0993C39.1986 53.8872 40.988 55.1618 43.1498 55.688C43.8396 55.8558 44.5485 55.9412 45.2566 55.9412C48.9386 55.9412 52.1801 53.6692 53.1396 50.4163C53.9448 47.6884 54.0297 43.7399 52.4055 41.0685ZM11.8831 6.67122C11.8831 4.19923 14.1202 2.18805 16.8699 2.18805C18.837 2.18805 20.626 3.23247 21.4275 4.84892C21.5614 5.11897 21.8059 5.32525 22.1039 5.42019C22.402 5.51502 22.7278 5.49019 23.0064 5.3515C25.0666 4.32436 27.4067 3.78153 29.7734 3.78153C32.1402 3.78153 34.4801 4.32436 36.5404 5.3515C36.8188 5.4903 37.1449 5.51512 37.4429 5.42019C37.741 5.32525 37.9853 5.11886 38.1192 4.84892C38.9209 3.23247 40.7098 2.18805 42.677 2.18805C45.4267 2.18805 47.6638 4.19912 47.6638 6.67122C47.6638 8.42023 46.5429 9.97544 44.8444 10.7102C44.5706 10.1184 44.2556 9.54209 43.9014 8.98855C43.5708 8.47219 42.8621 8.30801 42.3179 8.62148C41.7739 8.93517 41.6007 9.60805 41.9312 10.1244C42.4012 10.8589 42.7913 11.6394 43.0905 12.4445C43.0977 12.4642 43.1062 12.483 43.1145 12.502C43.5841 13.7866 43.8232 15.1303 43.8232 16.4976C43.8232 23.1579 38.1359 28.6381 30.9258 29.1706V21.036C32.5944 20.4936 33.7731 18.8484 33.7731 17.3959C33.7731 16.5994 33.3833 14.7468 29.7733 14.7468C26.1632 14.7468 25.7735 16.5994 25.7735 17.3959C25.7735 18.8484 26.952 20.4936 28.6207 21.036V29.1706C21.4107 28.6382 15.7233 23.158 15.7233 16.4976C15.7233 15.1103 15.9687 13.7461 16.4526 12.443C16.5611 12.151 16.5341 11.8292 16.3783 11.5571C16.2226 11.285 15.9528 11.0884 15.6356 11.0158C13.4262 10.5103 11.8831 8.72364 11.8831 6.67122ZM29.7736 37.6335C29.1371 37.6335 28.621 38.1233 28.621 38.7275V42.0434C24.7163 41.5108 21.7054 38.3159 21.7054 34.4647C21.7054 32.9059 22.2089 31.39 23.1342 30.1168C25.1642 30.942 27.4111 31.4016 29.7736 31.4016C32.1362 31.4016 34.383 30.942 36.4132 30.1168C37.3384 31.3901 37.8421 32.9059 37.8421 34.4647C37.8421 38.3158 34.831 41.5108 30.9264 42.0434V38.7275C30.9262 38.1233 30.4102 37.6335 29.7736 37.6335ZM28.0791 17.3959C28.0791 17.2892 28.0791 17.245 28.2696 17.156C28.4462 17.0734 28.8766 16.935 29.7736 16.935C30.6706 16.935 31.101 17.0735 31.2777 17.156C31.4681 17.245 31.4681 17.2892 31.4681 17.3959C31.4681 18.0125 30.676 19.0329 29.7735 19.0329C28.871 19.0328 28.0791 18.0125 28.0791 17.3959ZM18.8919 51.0646C18.1173 52.3385 16.8337 53.2487 15.2776 53.6274C14.9009 53.7191 14.5168 53.7768 14.1315 53.8001C14.1304 53.8001 14.1294 53.8003 14.1285 53.8004C14.0002 53.808 13.8719 53.8118 13.7436 53.8118C11.0911 53.812 8.76237 52.1971 8.08018 49.8851C7.42749 47.6723 7.30915 44.3301 8.59159 42.2206C9.21708 41.1919 10.0974 40.5514 11.283 40.2629C11.6641 40.1702 12.0454 40.1231 12.4162 40.1231C12.8061 40.1231 13.1844 40.1744 13.55 40.2691C13.5673 40.2742 13.5845 40.2792 13.6021 40.2835C16.5713 41.0889 18.7028 44.7596 19.4153 47.1755C19.8031 48.4904 19.6172 49.8716 18.8919 51.0646ZM37.3652 46.5268C37.0481 47.6015 36.9988 48.7063 37.2062 49.7738C34.9483 51.1248 32.3951 51.8375 29.7737 51.8375C26.9545 51.8375 24.2299 51.0211 21.8546 49.472C21.9871 48.5177 21.9168 47.5398 21.6354 46.5858C20.7964 43.7412 18.4341 39.7624 14.9244 38.4083C14.8198 37.6556 14.7663 36.8913 14.7663 36.1277C14.7663 35.0923 14.864 34.0537 15.0569 33.0408C15.1202 32.7084 15.0183 32.3671 14.7807 32.1157C14.5431 31.8642 14.1964 31.7309 13.8418 31.7548C13.7361 31.762 13.6291 31.7655 13.5234 31.7655C11.1711 31.7655 9.25741 30.048 9.25741 27.9372C9.25741 25.8264 11.1711 24.1091 13.5234 24.1091C14.6487 24.1091 15.7066 24.4985 16.5089 25.205C17.7391 26.757 19.2887 28.0852 21.0692 29.1095C19.9858 30.6963 19.4003 32.5561 19.4003 34.4647C19.4003 39.8939 24.054 44.3108 29.7739 44.3108C35.4937 44.3108 40.1474 39.8938 40.1474 34.4647C40.1474 32.5561 39.5619 30.6964 38.4785 29.1095C40.2591 28.0853 41.8087 26.7571 43.0388 25.205C43.8412 24.4982 44.8992 24.1091 46.0244 24.1091C48.3766 24.1091 50.2903 25.8264 50.2903 27.9372C50.2903 30.048 48.3766 31.7655 46.0244 31.7655C45.9189 31.7655 45.8116 31.7618 45.7057 31.7548C45.351 31.7309 45.0043 31.8642 44.7667 32.1157C44.5293 32.3671 44.4272 32.7085 44.4904 33.0409C44.6832 34.0526 44.7811 35.0911 44.7811 36.1275C44.7811 36.805 44.7391 37.4836 44.6568 38.1528C40.827 39.2688 38.2498 43.5283 37.3652 46.5268ZM50.9202 49.8264C50.2383 52.1385 47.9096 53.7533 45.2571 53.7533C44.742 53.7533 44.2259 53.6913 43.7229 53.5688C42.1666 53.19 40.8829 52.2798 40.1085 51.0059C39.3833 49.8129 39.1973 48.4317 39.585 47.1171C40.3354 44.5734 42.6587 40.6386 45.8766 40.122C45.8892 40.1201 45.9017 40.118 45.9142 40.1157C46.1334 40.0823 46.3569 40.0648 46.5842 40.0648C46.9552 40.0648 47.3365 40.1119 47.7175 40.2046C48.903 40.4932 49.7834 41.1335 50.409 42.1623C51.6913 44.2714 51.573 47.6137 50.9202 49.8264Z" fill="black"/>
<path d="M37.0207 12.3927C35.9569 12.3927 35.0891 13.181 35.0891 14.1473C35.0891 15.1137 35.9568 15.902 37.0207 15.902C38.0845 15.902 38.9521 15.1137 38.9521 14.1473C38.9521 13.181 38.0845 12.3927 37.0207 12.3927Z" fill="black"/>
<path d="M22.5267 12.3927C21.4628 12.3927 20.5951 13.181 20.5951 14.1473C20.5951 15.1137 21.4627 15.902 22.5267 15.902C23.5904 15.902 24.4581 15.1137 24.4581 14.1473C24.4581 13.181 23.5904 12.3927 22.5267 12.3927Z" fill="black"/>
<path d="M41.5852 6.18824L41.5583 6.16298C41.1012 5.74254 40.3698 5.75162 39.9267 6.18551C39.4836 6.61929 39.4932 7.31021 39.9503 7.73076C39.9511 7.73142 39.9566 7.73667 39.9575 7.73743C40.1818 7.95049 40.4753 8.05681 40.7691 8.05681C41.0637 8.05681 41.3585 7.94984 41.584 7.73645C42.0341 7.31032 42.0334 6.61634 41.5852 6.18824Z" fill="black"/>
<path d="M29.7733 34.4646C29.1368 34.4646 28.6207 34.9544 28.6207 35.5586V35.5844C28.6207 36.1886 29.1368 36.6783 29.7733 36.6783C30.4099 36.6783 30.9259 36.1886 30.9259 35.5844V35.5586C30.9259 34.9544 30.4099 34.4646 29.7733 34.4646Z" fill="black"/>
</svg>
