<svg width="55" height="55" viewBox="0 0 55 55" fill="none" xmlns="http://www.w3.org/2000/svg">
<g clip-path="url(#clip0)">
<path d="M35.4839 7.1687H33.7097C33.7097 8.07442 34.0913 8.94463 34.7558 9.55841L41.979 16.2268L43.1823 14.9226L35.9586 8.25462C35.6567 7.9761 35.4839 7.5802 35.4839 7.1687Z" fill="black"/>
<path d="M48.1986 0C46.0697 0 44.0356 1.01661 42.7582 2.71977L42.5806 2.9567L42.403 2.71977C41.1256 1.01661 39.0916 0 36.9626 0C33.2119 0 30.1613 3.05069 30.1613 6.80136V7.16954C30.1613 9.06242 30.9587 10.8838 32.3495 12.1673L42.5806 21.6104L52.8117 12.1664C54.2025 10.883 55 9.06155 55 7.16868V6.80136C55 3.05069 51.9493 0 48.1986 0ZM53.2258 7.16868C53.2258 8.56776 52.6358 9.914 51.6084 10.8626L42.5806 19.196L33.5528 10.8626C32.5254 9.914 31.9354 8.56776 31.9354 7.16868V6.80136C31.9354 4.02919 34.1904 1.77419 36.9626 1.77419C38.5363 1.77419 40.0402 2.52571 40.9849 3.78532L42.5815 5.91427L44.1781 3.78532C45.121 2.52571 46.625 1.77419 48.1986 1.77419C50.9708 1.77419 53.2258 4.02919 53.2258 6.80136V7.16868Z" fill="black"/>
<path d="M16.8549 30.1613C10.9848 30.1613 6.20972 34.9363 6.20972 40.8064C6.20972 46.6765 10.9848 51.4516 16.8549 51.4516C22.725 51.4516 27.5 46.6765 27.5 40.8064C27.5 34.9363 22.725 30.1613 16.8549 30.1613ZM25.7258 40.8064C25.7258 42.105 25.4382 43.3347 24.9353 44.4471L20.2603 41.7477C20.3439 41.4462 20.4033 41.1347 20.4033 40.8064C20.4033 40.4781 20.3439 40.1666 20.2603 39.8652L24.9353 37.1658C25.4382 38.2781 25.7258 39.5078 25.7258 40.8064ZM24.0448 35.6311L19.3823 38.3227C18.9388 37.8709 18.3726 37.5482 17.742 37.3841V31.9805C20.3348 32.2387 22.5954 33.6234 24.0448 35.6311ZM16.8549 42.5806C15.8764 42.5806 15.0807 41.7849 15.0807 40.8064C15.0807 39.8279 15.8764 39.0322 16.8549 39.0322C17.8334 39.0322 18.6291 39.8279 18.6291 40.8064C18.6291 41.7849 17.8334 42.5806 16.8549 42.5806ZM15.9678 31.9805V37.3841C15.3371 37.5482 14.771 37.8709 14.3274 38.3227L9.66498 35.6311C11.1143 33.6234 13.3749 32.2387 15.9678 31.9805ZM7.98391 40.8064C7.98391 39.5078 8.27152 38.2781 8.77441 37.1658L13.4494 39.8652C13.3658 40.1666 13.3065 40.4781 13.3065 40.8064C13.3065 41.1347 13.3658 41.4462 13.4494 41.7477L8.77441 44.4471C8.27152 43.3347 7.98391 42.105 7.98391 40.8064ZM9.66498 45.9817L14.3274 43.2901C14.771 43.7419 15.3371 44.0646 15.9678 44.2288V49.6323C13.3749 49.3742 11.1143 47.9894 9.66498 45.9817ZM17.742 49.6323V44.2288C18.3726 44.0646 18.9388 43.7419 19.3823 43.2901L24.0448 45.9817C22.5954 47.9894 20.3348 49.3742 17.742 49.6323Z" fill="black"/>
<path d="M42.5806 42.5807H36.2354L34.7566 33.7097H37.2581C38.7252 33.7097 39.9194 32.5155 39.9194 31.0484V29.2742C39.9194 27.8071 38.7252 26.6129 37.2581 26.6129H18.6468L15.9552 13.1531L14.9451 7.0968H3.54839C1.5914 7.0968 0 8.6882 0 10.6452C0 12.6022 1.5914 14.1936 3.54839 14.1936H9.0308L11.7107 27.5923C6.42279 29.6584 2.66129 34.7965 2.66129 40.8065C2.66129 48.6322 9.02907 55 16.8548 55C22.6075 55 27.5611 51.5539 29.7879 46.6233L29.9261 47.4545C30.1409 48.7423 31.2455 49.6774 32.551 49.6774H42.5806C44.0477 49.6774 45.2419 48.4832 45.2419 47.0162V45.242C45.2419 43.7749 44.0477 42.5807 42.5806 42.5807ZM38.1452 29.2742V31.0484C38.1452 31.537 37.7467 31.9355 37.2581 31.9355H27.9171C26.761 30.4974 25.3347 29.2876 23.7112 28.3871H37.2581C37.7467 28.3871 38.1452 28.7856 38.1452 29.2742ZM1.77419 10.6452C1.77419 9.6667 2.5699 8.871 3.54839 8.871H13.442L14.0337 12.4194H3.54839C2.5699 12.4194 1.77419 11.6237 1.77419 10.6452ZM10.8405 14.1936H14.3542L16.8379 26.6138C15.6554 26.6155 14.5119 26.7771 13.413 27.053L10.8405 14.1936ZM16.8548 53.2258C10.0063 53.2258 4.43548 47.6551 4.43548 40.8065C4.43548 33.9579 10.0063 28.3871 16.8548 28.3871C23.7034 28.3871 29.2742 33.9579 29.2742 40.8065C29.2742 47.6551 23.7034 53.2258 16.8548 53.2258ZM43.4677 47.0162C43.4677 47.5048 43.0692 47.9033 42.5806 47.9033H32.551C32.1157 47.9033 31.7475 47.591 31.6765 47.1617L30.9189 42.6197C30.996 42.0245 31.0484 41.422 31.0484 40.8065C31.0484 38.2197 30.3415 35.8005 29.1278 33.7097H32.9582L34.7323 44.3549H42.5806C43.0692 44.3549 43.4677 44.7534 43.4677 45.242V47.0162Z" fill="black"/>
</g>
<defs>
<clipPath id="clip0">
<rect width="55" height="55" fill="white"/>
</clipPath>
</defs>
</svg>
