<svg width="100" height="100" viewBox="0 0 100 100" fill="none" xmlns="http://www.w3.org/2000/svg">
<path d="M86.206 15.531L81.0331 18.9794L72.4118 17.2552L67.239 15.531L60.3419 17.2552L55.169 15.531L58.6175 8.63389H65.5146L72.2737 5.25439C77.4864 7.83213 82.2023 11.3116 86.206 15.531Z" fill="#C9E873"/>
<path d="M46.5479 8.63394L44.8237 13.8068L39.6508 15.531L34.478 24.1523L25.8567 29.3252L13.7869 31.0494V36.2223L17.2354 39.6707V46.5678L12.0629 43.1192L6.89004 39.6707L3.88984 30.6529C9.05391 18.3467 18.9254 8.61832 31.3055 3.63354L36.2024 6.90972L46.5479 8.63394Z" fill="#C9E873"/>
<path d="M49.9966 56.9132L48.2724 65.5345L41.3753 72.4316V77.6044L34.4782 82.7771V91.3984L29.3055 89.6742L25.8569 81.0529V63.8103L17.2356 62.086L13.7871 55.1889V50.0161L17.2356 46.5676L22.4084 41.3948L25.8569 48.2919H37.9266L43.0995 56.9132H49.9966Z" fill="#C9E873"/>
<path d="M93.6203 25.5834C103.033 42.376 101.961 63.0827 90.8615 78.8112L86.206 74.1557V67.2587L82.7576 60.3616L79.3091 53.4645V46.5674L74.1363 43.119L67.2392 44.8432L55.1694 39.6703L53.4452 27.6006L58.6181 22.4277H68.9636L72.4121 27.6006L82.7576 29.3248L93.1031 25.8764L93.6203 25.5834Z" fill="#C9E873"/>
<path d="M60.3421 17.2555L67.2392 15.5313L72.4121 17.2555L81.0334 18.9797L86.2063 15.5313C89.0943 18.5539 91.5859 21.9317 93.6205 25.5836L93.1033 25.8768L82.7578 29.3252L72.4123 27.601L68.9638 22.4282H58.6183L53.4454 27.601L55.1697 39.6708L67.2394 44.8436L74.1365 43.1194L79.3094 46.5679V53.465L82.7578 60.362L86.2063 67.2591V74.1562L90.8617 78.8117C74.9383 101.375 43.7376 106.757 21.1757 90.8332C2.0139 77.308 -5.17459 52.2837 3.88988 30.653L6.89008 39.6708L12.0629 43.1192L17.2358 46.5677L13.7872 50.0163V55.1892L17.2356 62.0863L25.8569 63.8105V81.0531L29.3054 89.6744L34.4782 91.3986V82.7773L41.3753 77.6045V72.4316L48.2724 65.5345L49.9966 56.9132H43.0995L37.9267 48.2919H25.8569L22.4085 41.3948L17.2358 46.5677L17.2356 39.6706L13.7872 36.2223V31.0495L25.8569 29.3252L34.4782 24.1524L39.6511 15.5311L44.8239 13.8069L46.5482 8.63399L36.2026 6.90977L31.3058 3.63359C44.5653 -1.70646 59.4767 -1.11681 72.2742 5.25449L65.515 8.63399H58.6179L55.1695 15.5311L60.3421 17.2555Z" fill="#C4C4C4"/>
</svg>
